<svg xmlns="http://www.w3.org/2000/svg" viewBox="0 0 320 360"><g stroke="#111827" stroke-width="2.2" stroke-linecap="round" stroke-linejoin="round"><path fill="#FFC329" stroke="none" d="M42 159C13 84 113 47 189 68s136 126 90 199S38 327 30 253s32-49 12-94"/><path fill="none" d="M255 0v41m-15 18 15-18 15 18m-36 1h42l-6 14h-30zM251 78h8"/><path fill="#FAF9F6" d="M235 59h40l-6 15h-28z"/><path fill="none" d="M43 298v-60m0 37c-28 1-28-22-28-22 24-1 28 22 28 22m0-15c25-4 25-25 25-25-24 4-25 25-25 25"/><path fill="#FAF9F6" d="M25 296h36l-5 35H30z"/><path fill="#111827" d="M100 303c-4 25 2 34 18 34h44l-2-43m40-8 18 36 43 4c8 2 10 9-2 12h-60l-25-43"/><path fill="#9CA3AF" d="M112 230c-13 28-25 65-14 80l66 2 15-42 23 39 25-12-28-68z"/><path fill="#FFC329" d="M128 147c-22 4-39 17-46 49l-11 35 29 13 15-29-6 37c28 13 66 14 94-1l-5-43 16 19 24-17-23-37c-8-13-24-23-44-25"/><path fill="none" d="m133 157 22 27 23-27m-29 25-1 32m14-34 4 33m-39 22h53l-8 18h-35z"/><path fill="#111827" d="M112 102c-10-40 6-66 37-69 39-4 56 21 50 56l-3 70-18-5-60 6z"/><path fill="#9CA3AF" d="M142 131v22c9 15 22 14 31-1v-29"/><path fill="#9CA3AF" d="M124 79c-9 6-6 21 2 22 1 23 13 41 30 41 20 0 32-22 33-47l-9-34c-20 4-27 18-52 15z"/><path fill="#111827" d="M122 72c15-2 28-15 34-23 11 17 18 20 35 25l-7-25-32-9-30 15z"/><path fill="none" d="M139 94h1m31-1h1m-18 1-3 15h6m-13 11c7 5 14 5 20-1M123 60c-17 18-11 52-15 70s-3 34-10 46m24-82c-4 31 3 49-8 75m72-112c18 26 8 56 15 86s0 37 9 42m-16-94c-5 28-2 49 7 65"/><path fill="#9CA3AF" d="m81 219-10 12c-4 9 11 21 26 16l30-13-7-14-25 9zm135-3 8 13-34 7-1 16c26 3 49-8 51-19 1-8-7-18-13-25"/><path fill="#FAF9F6" d="m104 207 70 4 22 44-76-4z"/><path fill="none" d="m120 216 46 3m-41 6 46 3m-41 6 25 2"/><path fill="#9CA3AF" d="m185 232-15 4 4 15 20 1"/><path fill="#FAF9F6" d="M77 319h180v10H77z"/><path fill="none" d="m288 220-5 8m-1-20-4 3M68 99l-8-7m14-5-1-9"/><g transform="translate(269 276)"><path fill="#FAF9F6" d="M0-8c-18-23-27 4-9 8-25 10-3 29 5 10 5 26 28 6 12-5 24 1 18-25 2-14z"/><circle r="6" fill="#FFC329"/></g></g></svg>
